Coordinates
version=1
nRows=17
nColumns=40
inDegrees=yes

Units are S.I. units (second, meters, Newtons, ...)
If the header above contains a line with 'inDegrees', this indicates whether rotational values are in degrees (yes) or radians (no).

endheader
time	pelvis_tilt	pelvis_list	pelvis_rotation	pelvis_tx	pelvis_ty	pelvis_tz	hip_flexion_r	hip_adduction_r	hip_rotation_r	knee_angle_r	knee_angle_r_beta	ankle_angle_r	subtalar_angle_r	mtp_angle_r	hip_flexion_l	hip_adduction_l	hip_rotation_l	knee_angle_l	knee_angle_l_beta	ankle_angle_l	subtalar_angle_l	mtp_angle_l	lumbar_extension	lumbar_bending	lumbar_rotation	arm_flex_r	arm_add_r	arm_rot_r	elbow_flex_r	pro_sup_r	wrist_flex_r	wrist_dev_r	arm_flex_l	arm_add_l	arm_rot_l	elbow_flex_l	pro_sup_l	wrist_flex_l	wrist_dev_l
      2.00000000	     -3.14152424	      4.88892984	      1.63826488	     -0.31992078	      1.00079165	     -0.72699462	     11.02939665	     -0.89271006	     -7.41337552	     16.35375658	      0.28542690	     -8.04798037	      0.00000000	      0.00000000	     28.32174962	     -5.83470413	     -7.12020578	     45.95043991	      0.80198647	     -7.15099738	      0.00000000	      0.00000000	     -5.14257967	     -4.06024842	     -2.22575704	     89.27066946	     -7.15806799	     41.41593405	     28.80770030	     85.27040481	      0.00000000	      0.00000000	     89.33865048	    -15.67379566	     52.44335652	     35.13007589	     85.30450346	      0.00000000	      0.00000000
      2.00500000	     -3.20359249	      4.91610150	      1.68306354	     -0.32052444	      1.00071437	     -0.72705659	     11.16017533	     -0.93952193	     -7.41250789	     16.42909998	      0.28674189	     -8.02266311	      0.00000000	      0.00000000	     28.58428352	     -5.78918295	     -6.99494107	     46.16702213	      0.80576654	     -7.32232919	      0.00000000	      0.00000000	     -5.18569221	     -4.04075638	     -2.19636703	     89.30431368	     -7.30999379	     41.45357236	     29.02323483	     85.44928313	      0.00000000	      0.00000000	     89.30355502	    -15.45609661	     51.95169851	     34.82362309	     85.58772304	      0.00000000	      0.00000000
      2.01000000	     -3.25013070	      4.93913088	      1.76621542	     -0.32104126	      1.00061947	     -0.72710304	     11.29652100	     -1.00342928	     -7.54175729	     16.57193640	      0.28923485	     -8.09154639	      0.00000000	      0.00000000	     28.81570230	     -5.79300927	     -7.04073742	     46.17650070	      0.80593197	     -7.50080184	      0.00000000	      0.00000000	     -5.23438722	     -4.00210820	     -2.28050193	     89.31290613	     -7.26478221	     41.24750609	     29.08790809	     85.51257893	      0.00000000	      0.00000000	     89.30613895	    -15.46866799	     51.92533096	     34.78737736	     85.57845362	      0.00000000	      0.00000000
      2.01500000	     -3.30711834	      5.00818736	      1.82889564	     -0.32167919	      1.00056542	     -0.72717548	     11.43637903	     -1.10469027	     -7.58428163	     16.64718370	      0.29054817	     -8.18511785	      0.00000000	      0.00000000	     29.07008853	     -5.73504410	     -7.13207125	     46.19666265	      0.80628387	     -7.18806999	      0.00000000	      0.00000000	     -5.29253276	     -4.00673268	     -2.32671757	     89.33374927	     -7.21259362	     41.00701896	     29.11377946	     85.46173808	      0.00000000	      0.00000000	     89.30771321	    -15.52401592	     51.85350571	     34.81615560	     85.56807765	      0.00000000	      0.00000000
      2.02000000	     -3.38093131	      5.03656020	      1.85698701	     -0.32229371	      1.00043943	     -0.72712181	     11.61489663	     -1.15274924	     -7.62310563	     16.79060053	      0.29305126	     -8.00622272	      0.00000000	      0.00000000	     29.27636215	     -5.75641108	     -7.16044201	     46.08639766	      0.80435938	     -7.85544216	      0.00000000	      0.00000000	     -5.32721832	     -3.98640253	     -2.31325882	     89.36849699	     -7.27911937	     41.07183838	     29.24693673	     85.49727178	      0.00000000	      0.00000000	     89.31115797	    -15.45826440	     51.73565883	     34.76569183	     85.48130342	      0.00000000	      0.00000000
      2.02500000	     -3.43901611	      5.06609163	      1.89910608	     -0.32285945	      1.00033790	     -0.72719195	     11.76624153	     -1.20677179	     -7.65009308	     16.89503432	      0.29487398	     -8.00352102	      0.00000000	      0.00000000	     29.50112750	     -5.76200156	     -7.23556961	     46.05467314	      0.80380568	     -8.00234026	      0.00000000	      0.00000000	     -5.36384869	     -3.97171833	     -2.38153287	     89.36721444	     -7.20236261	     40.87395031	     29.28305318	     85.55668074	      0.00000000	      0.00000000	     89.31945994	    -15.45949147	     51.69026114	     34.72474818	     85.55049159	      0.00000000	      0.00000000
      2.03000000	     -3.50772126	      5.11606873	      1.94960738	     -0.32342664	      1.00024904	     -0.72727227	     11.91766199	     -1.28644466	     -7.73084407	     16.95400177	      0.29590315	     -8.05210905	      0.00000000	      0.00000000	     29.72602518	     -5.73496210	     -7.29099709	     46.00177597	      0.80288245	     -8.13296928	      0.00000000	      0.00000000	     -5.40258365	     -3.97369180	     -2.33449469	     89.38741665	     -7.26130790	     40.73542106	     29.19943653	     85.47055815	      0.00000000	      0.00000000	     89.33707580	    -15.31809133	     51.63851995	     34.60849513	     85.49165221	      0.00000000	      0.00000000
      2.03500000	     -3.53715176	      5.22453619	      2.00467389	     -0.32407575	      1.00024804	     -0.72736294	     12.06609433	     -1.43852591	     -7.81966169	     17.13795363	      0.29911372	     -7.97463315	      0.00000000	      0.00000000	     29.86875132	     -5.63212280	     -7.48337566	     45.70452192	      0.79769439	     -8.16150253	      0.00000000	      0.00000000	     -5.49492229	     -4.01558562	     -2.43576371	     89.42464120	     -7.20320607	     40.80081528	     29.21257912	     85.30761051	      0.00000000	      0.00000000	     89.35559880	    -15.45197752	     51.73102228	     34.74326702	     85.34162752	      0.00000000	      0.00000000
      2.04000000	     -3.62363471	      5.15995433	      2.03543433	     -0.32462781	      1.00007955	     -0.72737926	     12.18550658	     -1.35728301	     -7.72885928	     17.08568173	      0.29820140	     -8.01780008	      0.00000000	      0.00000000	     30.18821931	     -5.76530386	     -7.50880082	     45.95113425	      0.80199859	     -7.88890817	      0.00000000	      0.00000000	     -5.48758484	     -3.89217786	     -2.39848985	     89.44462594	     -7.19824000	     40.89000203	     29.15290037	     83.62392362	      0.00000000	      0.00000000	     89.36865469	    -15.33572284	     52.04086619	     34.55595063	     83.76747039	      0.00000000	      0.00000000
      2.04500000	     -3.66391355	      5.25786856	      2.11047106	     -0.32518263	      1.00000968	     -0.72750004	     12.34192642	     -1.51035538	     -7.89450559	     17.27075077	      0.30143147	     -7.95297988	      0.00000000	      0.00000000	     30.34038441	     -5.65333753	     -7.41913122	     45.76901200	      0.79881995	     -8.67822332	      0.00000000	      0.00000000	     -5.56339677	     -3.94897480	     -2.46658996	     89.44025637	     -7.22260681	     40.42955278	     29.38530224	     85.51488468	      0.00000000	      0.00000000	     89.34850817	    -15.23586543	     51.29449454	     34.42389757	     85.49683842	      0.00000000	      0.00000000
      2.05000000	     -3.73324842	      5.28635910	      2.12508479	     -0.32574065	      0.99985430	     -0.72749622	     12.51071643	     -1.55054527	     -7.85135267	     17.40326804	      0.30374433	     -7.94556446	      0.00000000	      0.00000000	     30.56744020	     -5.67579759	     -7.50135043	     45.70482495	      0.79769968	     -8.89571006	      0.00000000	      0.00000000	     -5.59355253	     -3.92838949	     -2.41522458	     89.46691331	     -7.27740905	     40.66678298	     29.52008959	     85.69812822	      0.00000000	      0.00000000	     89.35178969	    -15.13261874	     51.22882300	     34.34179386	     85.52523018	      0.00000000	      0.00000000
      2.05500000	     -3.72539652	      5.24733045	      2.13642072	     -0.32622268	      0.99978353	     -0.72741854	     12.56559682	     -1.50330971	     -7.82071657	     17.45151497	      0.30458640	     -7.99398084	      0.00000000	      0.00000000	     30.64114005	     -5.89229015	     -8.16292638	     45.22083234	      0.78925241	     -9.03376839	      0.00000000	      0.00000000	     -5.69961366	     -3.83483698	     -2.46675363	     89.48091068	     -7.20870181	     40.56008734	     29.67895695	     85.68224379	      0.00000000	      0.00000000	     89.35937420	    -15.18218441	     51.08983944	     34.25793303	     85.43647237	      0.00000000	      0.00000000
      2.06000000	     -3.82165178	      5.36772705	      2.21786284	     -0.32693472	      0.99960465	     -0.72766673	     12.80500116	     -1.68654899	     -7.95228943	     17.67887800	      0.30855463	     -7.86816057	      0.00000000	      0.00000000	     30.98786205	     -5.65028463	     -7.66090067	     45.59802551	      0.79583568	     -8.73462258	      0.00000000	      0.00000000	     -5.71809380	     -3.88522120	     -2.50703138	     89.49876319	     -7.22397592	     40.46754284	     29.71091402	     85.68490801	      0.00000000	      0.00000000	     89.36459578	    -15.15457041	     51.09204885	     34.29451446	     85.44455367	      0.00000000	      0.00000000
      2.06500000	     -3.88917026	      5.40321158	      2.24064802	     -0.32751569	      0.99947141	     -0.72771100	     12.95461005	     -1.73215989	     -7.87638383	     17.75510248	      0.30988500	     -7.86950822	      0.00000000	      0.00000000	     31.19225258	     -5.67217188	     -7.68674663	     45.56142030	      0.79519680	     -8.84307835	      0.00000000	      0.00000000	     -5.75311565	     -3.87506699	     -2.51707434	     89.51143811	     -7.17631567	     40.35444593	     29.65422797	     85.66822690	      0.00000000	      0.00000000	     89.38597225	    -15.10689619	     51.00719773	     34.21884570	     85.38115205	      0.00000000	      0.00000000
      2.07000000	     -3.95732713	      5.44416677	      2.36291382	     -0.32803795	      0.99937347	     -0.72792298	     13.10387639	     -1.82726418	     -7.98963116	     17.86886409	      0.31187051	     -7.84021333	      0.00000000	      0.00000000	     31.37142900	     -5.58155248	     -7.53339262	     45.35215185	      0.79154437	     -9.55331676	      0.00000000	      0.00000000	     -5.78316731	     -3.85278654	     -2.63658355	     89.51733283	     -7.12482228	     40.14255803	     29.68229658	     85.68388546	      0.00000000	      0.00000000	     89.38707488	    -15.11973706	     50.97541888	     34.21319694	     85.40309682	      0.00000000	      0.00000000
      2.07500000	     -4.01657255	      5.46599499	      2.40609326	     -0.32868573	      0.99925028	     -0.72804804	     13.25629522	     -1.87199659	     -8.00182694	     17.96640699	      0.31357296	     -7.85950830	      0.00000000	      0.00000000	     31.61248150	     -5.58711851	     -7.64170064	     45.32153577	      0.79101002	     -9.24563424	      0.00000000	      0.00000000	     -5.82923743	     -3.81718672	     -2.60678338	     89.54037281	     -7.23437558	     40.17786464	     29.80810374	     85.70779211	      0.00000000	      0.00000000	     89.37894427	    -14.98807622	     50.83456905	     34.08520676	     85.41828613	      0.00000000	      0.00000000
      2.08000000	     -4.05965302	      5.44620601	      2.41739643	     -0.32919027	      0.99908059	     -0.72805175	     13.38123231	     -1.85320075	     -7.95222507	     18.05933680	      0.31519489	     -7.83680684	      0.00000000	      0.00000000	     31.75847559	     -5.71672410	     -8.03374144	     45.00473067	      0.78548073	    -10.01958821	      0.00000000	      0.00000000	     -5.87391129	     -3.74540367	     -2.57951440	     89.54810919	     -7.23834597	     40.10680292	     29.82753682	     85.73000103	      0.00000000	      0.00000000	     89.38948920	    -14.91976604	     50.72232296	     33.98852102	     85.41525463	      0.00000000	      0.00000000
